<svg width="22" height="19" viewBox="0 0 22 19" fill="none" xmlns="http://www.w3.org/2000/svg">
<path d="M14.1828 12.8259V9.13846C14.1828 7.45612 12.8235 6.09231 11.1468 6.09231H4.22656V2.56518C4.22656 1.14847 5.37121 0 6.78319 0H18.7141C20.1261 0 21.2708 1.14847 21.2708 2.56518V10.2607L21.2877 15.0143C21.2886 15.2947 21.0629 15.5228 20.7835 15.5238C20.6486 15.5243 20.5192 15.4707 20.4239 15.3751L17.8832 12.8259H14.1828Z" fill="white"/>
<path fill-rule="evenodd" clip-rule="evenodd" d="M0 15.2307V10.1538C0 9.03225 0.906176 8.12305 2.024 8.12305H10.12C11.2378 8.12305 12.144 9.03225 12.144 10.1538V15.2307C12.144 16.3523 11.2378 17.2615 10.12 17.2615H2.14112L0.882341 18.4704C0.680456 18.6642 0.360151 18.6572 0.16692 18.4546C0.0767801 18.3601 0.0264659 18.2344 0.0264659 18.1036V15.56C0.00905315 15.4528 0 15.3428 0 15.2307ZM4.56912 11.1692C4.28967 11.1692 4.06312 11.3965 4.06312 11.6769C4.06312 11.9573 4.28967 12.1846 4.56912 12.1846H9.62912C9.90858 12.1846 10.1351 11.9573 10.1351 11.6769C10.1351 11.3965 9.90858 11.1692 9.62912 11.1692H4.56912ZM7.09912 13.7077C7.09912 13.4273 7.32567 13.2 7.60512 13.2H9.62912C9.90858 13.2 10.1351 13.4273 10.1351 13.7077C10.1351 13.9881 9.90858 14.2154 9.62912 14.2154H7.60512C7.32567 14.2154 7.09912 13.9881 7.09912 13.7077Z" fill="white"/>
</svg>
