<svg width="20" height="21" viewBox="0 0 20 21" fill="none" xmlns="http://www.w3.org/2000/svg">
<path d="M2 2.14282H18C19.1046 2.14282 20 3.10221 20 4.28568V18C20 19.1834 19.1046 20.1428 18 20.1428H2C0.89543 20.1428 0 19.1834 0 18V4.28568C0 3.10221 0.89543 2.14282 2 2.14282Z" fill="white"/>
<path d="M16.501 9.64282H3.50098C2.67255 9.64282 2.00098 10.3624 2.00098 11.25V12.6428H6.58676C6.85198 12.6428 7.10633 12.7557 7.29387 12.9566L8.29387 14.0281C8.74662 14.5132 9.36069 14.7857 10.001 14.7857C10.6413 14.7857 11.2553 14.5132 11.7081 14.0281L12.7081 12.9566C12.8956 12.7557 13.15 12.6428 13.4152 12.6428H18.001V11.25C18.001 10.3624 17.3294 9.64282 16.501 9.64282Z" fill="#D2D2D2"/>
<path d="M3.50098 0C2.67255 0 2.00098 0.719542 2.00098 1.60714V6.42857H18.001V1.60714C18.001 0.719542 17.3294 0 16.501 0H3.50098Z" fill="#D2D2D2"/>
<path d="M2.16209 4.28577C1.16324 4.28577 0.353516 5.00531 0.353516 5.89291V9.00005H19.6449V5.89291C19.6449 5.00531 18.8352 4.28577 17.8364 4.28577H2.16209Z" fill="white"/>
</svg>
