<svg width="20" height="20" viewBox="0 0 20 20" fill="none" xmlns="http://www.w3.org/2000/svg">
<path d="M17.3583 7.5H17.5C18.8807 7.5 20 8.61929 20 10C20 11.3807 18.8807 12.5 17.5 12.5L17.4283 12.5C17.2124 12.5009 17.0177 12.6298 16.9326 12.8283C16.8396 13.0391 16.8825 13.2757 17.0309 13.4274L17.0806 13.4771C17.55 13.946 17.8138 14.5823 17.8138 15.2458C17.8138 15.9094 17.55 16.5457 17.0812 17.0139C16.6123 17.4834 15.976 17.7471 15.3125 17.7471C14.649 17.7471 14.0127 17.4834 13.5441 17.0143L13.5006 16.9707C13.3423 16.8159 13.1057 16.773 12.8949 16.866C12.6965 16.951 12.5675 17.1458 12.5667 17.3583V17.5C12.5667 18.8807 11.4474 20 10.0667 20C8.68595 20 7.56667 18.8807 7.56667 17.5C7.56169 17.2221 7.42109 17.0256 7.16353 16.9291C6.96095 16.8396 6.72435 16.8825 6.57259 17.0309L6.52292 17.0806C6.054 17.55 5.41769 17.8138 4.75417 17.8138C4.09064 17.8138 3.45434 17.55 2.98607 17.0812C2.51663 16.6123 2.25286 15.976 2.25286 15.3125C2.25286 14.649 2.51663 14.0127 2.98574 13.5441L3.02928 13.5006C3.18412 13.3423 3.22702 13.1057 3.13405 12.8949C3.049 12.6965 2.85424 12.5675 2.64167 12.5667H2.5C1.11929 12.5667 0 11.4474 0 10.0667C0 8.68595 1.11929 7.56667 2.5 7.56667C2.77787 7.56169 2.97445 7.42109 3.07095 7.16353C3.16035 6.96095 3.11745 6.72435 2.96908 6.57259L2.91941 6.52292C2.44996 6.054 2.18619 5.41769 2.18619 4.75417C2.18619 4.09064 2.44996 3.45434 2.91875 2.98607C3.38767 2.51663 4.02398 2.25286 4.6875 2.25286C5.35102 2.25286 5.98733 2.51663 6.45592 2.98574L6.49939 3.02928C6.65768 3.18412 6.89428 3.22702 7.09686 3.13761L7.2165 3.11239C7.38935 3.01877 7.49921 2.83779 7.5 2.64167V2.5C7.5 1.11929 8.61929 0 10 0C11.3807 0 12.5 1.11929 12.5 2.5L12.5 2.57168C12.5009 2.78757 12.6298 2.98234 12.8365 3.07095C13.0391 3.16035 13.2757 3.11745 13.4274 2.96908L13.4771 2.91941C13.946 2.44996 14.5823 2.18619 15.2458 2.18619C15.9094 2.18619 16.5457 2.44996 17.0139 2.91875C17.4834 3.38767 17.7471 4.02398 17.7471 4.6875C17.7471 5.35102 17.4834 5.98733 17.0143 6.45592L16.9707 6.49939C16.8159 6.65768 16.773 6.89428 16.8624 7.09686L16.8876 7.2165C16.9812 7.38935 17.1622 7.49921 17.3583 7.5Z" fill="white"/>
<path d="M12.8337 9.99996C12.8337 11.5648 11.5651 12.8333 10.0003 12.8333C8.43552 12.8333 7.16699 11.5648 7.16699 9.99996C7.16699 8.43515 8.43552 7.16663 10.0003 7.16663C11.5651 7.16663 12.8337 8.43515 12.8337 9.99996Z" fill="#D2D2D2" stroke="#50B848"/>
</svg>
